{"title":"Tron.Legacy.2010.720p.BRRip.x264.Feel-Free","uid":6230954,"size":2628300720,"categoryP":"video","categoryS":"hd___movies","magnet":"?xt=urn:btih:067ed9996b7e6b75b66c382858c2772dbc811a14&amp;dn=Tron.Legacy.2010.720p.BRRip.x264.Feel-Free&amp;tr=udp%3A%2F%2Ftracker.openbittorrent.com%3A80&amp;tr=udp%3A%2F%2Fopen.demonii.com%3A1337&amp;tr=udp%3A%2F%2Ftracker.coppersurfer.tk%3A6969&amp;tr=udp%3A%2F%2Fexodus.desync.com%3A6969","seeders":0,"leechers":1,"uploader":".BONE.","files":10,"time":1299711428,"description":"Genre:Action | Adventure | Sci-Fi\nLanguage:English\n &lt;a href=&quot;\nhttp://www.imdb.com/title/tt1104001/&quot; rel=&quot;nofollow&quot; target=&quot;_NEW&quot;&gt;\nhttp://www.imdb.com/title/tt1104001/&lt;/a&gt;\n\nSource:1080p.DTS.x264-CHD\nSubtitles:Romana\n\n\nFormat : MPEG-4\nFormat profile : Base Media\nCodec ID : isom\nFile size : 2.44 GiB\nDuration : 2h 5mn\nOverall bit rate : 2 795 Kbps\n\n\nVideo\nFormat profile : &lt;a class=&quot;__cf_email__&quot; href=&quot;/cdn-cgi/l/email-protection&quot; data-cfemail=&quot;b5fddcd2ddf5f9819b84&quot;&gt;[email&amp;#160;protected]&lt;/a&gt;&lt;script cf-hash='f9e31' type=&quot;text/javascript&quot;&gt;\n/* &lt;![CDATA[ */!function(){try{var t=&quot;currentScript&quot;in document?document.currentScript:function(){for(var t=document.getElementsByTagName(&quot;script&quot;),e=t.length;e--;)if(t[e].getAttribute(&quot;cf-hash&quot;))return t[e]}();if(t&amp;&amp;t.previousSibling){var e,r,n,i,c=t.previousSibling,a=c.getAttribute(&quot;data-cfemail&quot;);if(a){for(e=&quot;&quot;,r=parseInt(a.substr(0,2),16),n=2;a.length-n;n+=2)i=parseInt(a.substr(n,2),16)^r,e+=String.fromCharCode(i);e=document.createTextNode(e),c.parentNode.replaceChild(e,c)}}}catch(u){}}();/* ]]&gt; */&lt;/script&gt;\nFormat settings, CABAC : Yes\nFormat settings, ReFrames : 3 frames\nCodec ID : avc1\nCodec ID/Info : Advanced Video Coding\nDuration : 2h 5mn\nBit rate mode : Variable\nBit rate : 2 361 Kbps\nMaximum bit rate : 13.6 Mbps\nWidth : 1 280 pixels\nHeight : 720 pixels\nDisplay aspect ratio : 16:9\nFrame rate mode : Constant\nFrame rate : 23.976 fps\nColor space : YUV\nChroma subsampling : 4:2:0\nBit depth : 8 bits\nScan type : Progressive\nBits/(Pixel*Frame) : 0.107\nStream size : 2.05 GiB (84%)\nWriting library : x264\n\n\nAudio\nID : 2\nFormat : AAC\nFormat/Info : Advanced Audio Codec\nFormat version : Version 4\nFormat profile : LC\nFormat settings, SBR : No\nCodec ID : 40\nDuration : 2h 5mn\nBit rate mode : Variable\nBit rate : 446 Kbps\nMaximum bit rate : 560 Kbps\nChannel(s) : 6 channels\nChannel positions : Front: L C R, Side: L R, LFE\nSampling rate : 48.0 KHz\nStream size : 399 MiB (16%)\n\n\nPlot:\nA virtual-world worker looks to take down the Master Control Program\n &lt;a href=&quot;\nhttp://www.postimg.com/30000/photo-29928.jpg&quot; rel=&quot;nofollow&quot; target=&quot;_NEW&quot;&gt;\nhttp://www.postimg.com/30000/photo-29928.jpg&lt;/a&gt;\n &lt;a href=&quot;\nhttp://www.postimg.com/30000/photo-29930.jpg&quot; rel=&quot;nofollow&quot; target=&quot;_NEW&quot;&gt;\nhttp://www.postimg.com/30000/photo-29930.jpg&lt;/a&gt;\n &lt;a href=&quot;\nhttp://www.postimg.com/30000/photo-29931.jpg&quot; rel=&quot;nofollow&quot; target=&quot;_NEW&quot;&gt;\nhttp://www.postimg.com/30000/photo-29931.jpg&lt;/a&gt;\n &lt;a href=&quot;\nhttp://www.postimg.com/30000/photo-29932.jpg&quot; rel=&quot;nofollow&quot; target=&quot;_NEW&quot;&gt;\nhttp://www.postimg.com/30000/photo-29932.jpg&lt;/a&gt;\n &lt;a href=&quot;\nhttp://www.postimg.com/30000/photo-29934.jpg&quot; rel=&quot;nofollow&quot; target=&quot;_NEW&quot;&gt;\nhttp://www.postimg.com/30000/photo-29934.jpg&lt;/a&gt;","torrent":{"xt":"urn:btih:067ed9996b7e6b75b66c382858c2772dbc811a14","amp;dn":"Tron.Legacy.2010.720p.BRRip.x264.Feel-Free","amp;tr":["udp%3A%2F%2Ftracker.openbittorrent.com%3A80","udp%3A%2F%2Fopen.demonii.com%3A1337","udp%3A%2F%2Ftracker.coppersurfer.tk%3A6969","udp%3A%2F%2Fexodus.desync.com%3A6969"],"infoHash":"067ed9996b7e6b75b66c382858c2772dbc811a14","infoHashBuffer":{"type":"Buffer","data":[6,126,217,153,107,126,107,117,182,108,56,40,88,194,119,45,188,129,26,20]},"announce":[],"urlList":[]}}